<svg width="20" height="20" viewBox="0 0 20 20" fill="none" xmlns="http://www.w3.org/2000/svg">
<path d="M16.8 4.16666C15.9166 3.281 14.7457 2.74045 13.4986 2.64264C12.2516 2.54483 11.0106 2.89622 10 3.63333C8.93972 2.84469 7.62 2.48709 6.30661 2.63253C4.99321 2.77796 3.78371 3.41564 2.92165 4.41715C2.05959 5.41866 1.60902 6.7096 1.66067 8.03001C1.71232 9.35042 2.26235 10.6022 3.20001 11.5333L8.37501 16.7167C8.80835 17.1431 9.39199 17.3822 10 17.3822C10.608 17.3822 11.1917 17.1431 11.625 16.7167L16.8 11.5333C17.773 10.5544 18.3191 9.23022 18.3191 7.85C18.3191 6.46977 17.773 5.14561 16.8 4.16666ZM15.625 10.3833L10.45 15.5583C10.3911 15.6178 10.321 15.665 10.2438 15.6972C10.1666 15.7294 10.0837 15.746 10 15.746C9.91632 15.746 9.83346 15.7294 9.75622 15.6972C9.67898 15.665 9.60889 15.6178 9.55001 15.5583L4.37501 10.3583C3.72147 9.69028 3.35551 8.79288 3.35551 7.85833C3.35551 6.92377 3.72147 6.02637 4.37501 5.35833C5.04097 4.70082 5.93915 4.33214 6.87501 4.33214C7.81086 4.33214 8.70904 4.70082 9.37501 5.35833C9.45248 5.43644 9.54464 5.49843 9.64619 5.54074C9.74774 5.58305 9.85666 5.60483 9.96667 5.60483C10.0767 5.60483 10.1856 5.58305 10.2872 5.54074C10.3887 5.49843 10.4809 5.43644 10.5583 5.35833C11.2243 4.70082 12.1225 4.33214 13.0583 4.33214C13.9942 4.33214 14.8924 4.70082 15.5583 5.35833C16.2209 6.01762 16.5988 6.91015 16.6113 7.84473C16.6238 8.77931 16.2697 9.68161 15.625 10.3583V10.3833Z" fill="#64748B"/>
</svg>
